<svg width="2968" height="98" viewBox="0 0 2968 98" fill="none" xmlns="http://www.w3.org/2000/svg">
<path d="M54.3131 27.4634L60.2289 13.7317L43.7269 19.7991L34.0748 5.10944L24.1113 19.7991L7.92065 13.7317L13.8364 27.4634" stroke="black" stroke-width="2.5" stroke-linecap="round" stroke-linejoin="round"/>
<path d="M33.7632 47.9013V52.372" stroke="black" stroke-width="2.5" stroke-linecap="round" stroke-linejoin="round"/>
<path d="M17.884 44.0692V48.8593" stroke="black" stroke-width="2.5" stroke-linecap="round" stroke-linejoin="round"/>
<path d="M49.6423 44.0692V48.8593" stroke="black" stroke-width="2.5" stroke-linecap="round" stroke-linejoin="round"/>
<path d="M41.8584 60.675V65.4651" stroke="black" stroke-width="2.5" stroke-linecap="round" stroke-linejoin="round"/>
<path d="M25.3567 60.675V65.4651" stroke="black" stroke-width="2.5" stroke-linecap="round" stroke-linejoin="round"/>
<path d="M26.602 86.2224C27.5073 87.3581 28.6473 88.2732 29.9397 88.9016C31.232 89.5301 32.6444 89.8559 34.0746 89.8559C35.5049 89.8559 36.9172 89.5301 38.2096 88.9016C39.5019 88.2732 40.6419 87.3581 41.5472 86.2224L59.6061 65.1457C63.8014 60.179 66.1213 53.834 66.1446 47.2626C66.1858 44.7044 65.7353 42.1629 64.8187 39.7833C63.9021 37.4037 62.5374 35.2325 60.8026 33.3939C59.0678 31.5553 56.9968 30.0853 54.708 29.0677C52.4192 28.0501 49.9574 27.505 47.4631 27.4634H20.6862C18.192 27.505 15.7301 28.0501 13.4412 29.0677C11.1524 30.0853 9.08151 31.5553 7.34671 33.3939C5.6119 35.2325 4.24721 37.4037 3.33063 39.7833C2.41404 42.1629 1.96351 44.7044 2.00473 47.2626C1.88016 53.8609 4.21929 60.2584 8.54328 65.1457L26.602 86.2224Z" stroke="black" stroke-width="2.5" stroke-linecap="round" stroke-linejoin="round"/>
<path d="M179.267 45.0272C185.458 45.0272 190.476 39.8801 190.476 33.5309C190.476 27.1817 185.458 22.0347 179.267 22.0347C173.077 22.0347 168.058 27.1817 168.058 33.5309C168.058 39.8801 173.077 45.0272 179.267 45.0272Z" stroke="black" stroke-width="2.5" stroke-linecap="round" stroke-linejoin="round"/>
<path d="M201.996 45.0272C208.187 45.0272 213.205 39.8801 213.205 33.5309C213.205 27.1817 208.187 22.0347 201.996 22.0347C195.806 22.0347 190.787 27.1817 190.787 33.5309C190.787 39.8801 195.806 45.0272 201.996 45.0272Z" stroke="black" stroke-width="2.5" stroke-linecap="round" stroke-linejoin="round"/>
<path d="M224.725 45.0272C230.916 45.0272 235.934 39.8801 235.934 33.5309C235.934 27.1817 230.916 22.0347 224.725 22.0347C218.535 22.0347 213.516 27.1817 213.516 33.5309C213.516 39.8801 218.535 45.0272 224.725 45.0272Z" stroke="black" stroke-width="2.5" stroke-linecap="round" stroke-linejoin="round"/>
<path d="M190.787 68.3393C196.978 68.3393 201.996 63.1923 201.996 56.843C201.996 50.4938 196.978 45.3467 190.787 45.3467C184.597 45.3467 179.578 50.4938 179.578 56.843C179.578 63.1923 184.597 68.3393 190.787 68.3393Z" stroke="black" stroke-width="2.5" stroke-linecap="round" stroke-linejoin="round"/>
<path d="M213.205 68.3393C219.396 68.3393 224.414 63.1923 224.414 56.843C224.414 50.4938 219.396 45.3467 213.205 45.3467C207.015 45.3467 201.996 50.4938 201.996 56.843C201.996 63.1923 207.015 68.3393 213.205 68.3393Z" stroke="black" stroke-width="2.5" stroke-linecap="round" stroke-linejoin="round"/>
<path d="M201.996 89.7351C208.187 89.7351 213.205 84.588 213.205 78.2388C213.205 71.8896 208.187 66.7426 201.996 66.7426C195.806 66.7426 190.787 71.8896 190.787 78.2388C190.787 84.588 195.806 89.7351 201.996 89.7351Z" stroke="black" stroke-width="2.5" stroke-linecap="round" stroke-linejoin="round"/>
<path d="M201.996 22.0347C201.603 19.3134 201.948 16.5336 202.991 13.9993C204.034 11.465 205.736 9.27354 207.912 7.66431" stroke="black" stroke-width="2.5" stroke-linecap="round" stroke-linejoin="round"/>
<path d="M424.714 75.617C419.325 80.6231 412.949 84.3829 406.019 86.6418C399.09 88.9008 391.768 89.6061 384.549 88.7101C361.197 86.1553 336.911 67.3141 339.402 43.3635C340.336 32.8252 340.647 36.6573 342.204 12.3873C342.204 11.1099 345.629 10.4713 345.629 10.4713C345.629 10.4713 351.234 9.19387 351.234 12.3873C351.23 18.1507 352.178 23.8732 354.036 29.3124C357.48 39.7274 364.015 48.7759 372.726 55.1899C381.436 61.6038 391.885 65.0617 402.608 65.0787C407.777 65.1657 412.926 64.4112 417.864 62.8434C419.487 62.1796 421.29 62.1469 422.934 62.7514C424.578 63.3559 425.951 64.5561 426.792 66.1258C427.634 67.6956 427.888 69.5268 427.505 71.2749C427.122 73.0229 426.13 74.5672 424.714 75.617Z" stroke="black" stroke-width="2.5" stroke-linecap="round" stroke-linejoin="round"/>
<path d="M353.413 26.119C359.327 32.7815 366.826 37.7555 375.176 40.5543C383.527 43.3531 392.442 43.8809 401.051 42.0861C406.182 41.0949 411.123 39.2618 415.685 36.6573C417.117 35.9171 418.75 35.6913 420.322 36.0164C421.895 36.3415 423.315 37.1984 424.356 38.45C425.397 39.7016 425.998 41.2753 426.063 42.919C426.128 44.5626 425.653 46.1811 424.714 47.5149L420.044 52.9437" stroke="black" stroke-width="2.5" stroke-linecap="round" stroke-linejoin="round"/>
<path d="M598.212 95.9682C608.441 95.9682 616.734 87.6757 616.734 77.4464C616.734 67.217 608.441 58.9245 598.212 58.9245C587.982 58.9245 579.69 67.217 579.69 77.4464C579.69 87.6757 587.982 95.9682 598.212 95.9682Z" stroke="black" stroke-width="2.5" stroke-linecap="round" stroke-linejoin="round"/>
<path d="M549.352 95.9682C559.582 95.9682 567.874 87.6757 567.874 77.4464C567.874 67.217 559.582 58.9245 549.352 58.9245C539.123 58.9245 530.831 67.217 530.831 77.4464C530.831 87.6757 539.123 95.9682 549.352 95.9682Z" stroke="black" stroke-width="2.5" stroke-linecap="round" stroke-linejoin="round"/>
<path d="M598.212 58.9245C598.212 58.9245 590.867 25.713 603.321 15.494C553.504 23.1582 549.352 58.9245 549.352 58.9245" stroke="black" stroke-width="2.5" stroke-linecap="round" stroke-linejoin="round"/>
<path d="M579.86 20.5486L578.505 21.9034C573.055 27.3533 565.663 30.415 557.956 30.415C550.249 30.415 542.857 27.3533 537.408 21.9034L538.762 20.5486C544.212 15.0987 551.604 12.0371 559.311 12.0371C567.018 12.0371 574.41 15.0988 579.86 20.5486Z" stroke="black" stroke-width="2.5" stroke-linejoin="round"/>
<path d="M1634.33 78.004C1642.24 78.004 1648.66 71.4273 1648.66 63.3144C1648.66 55.2014 1642.24 48.6247 1634.33 48.6247C1626.42 48.6247 1620.01 55.2014 1620.01 63.3144C1620.01 71.4273 1626.42 78.004 1634.33 78.004Z" stroke="black" stroke-width="2.5" stroke-linecap="round" stroke-linejoin="round"/>
<path d="M1664.85 59.8017C1664.85 68.1018 1661.63 76.0619 1655.91 81.9309C1650.19 87.8 1642.43 91.0972 1634.33 91.0972C1626.24 91.0972 1618.48 87.8 1612.76 81.9309C1607.03 76.0619 1603.82 68.1018 1603.82 59.8017C1603.82 42.5573 1617.52 12.8584 1634.33 12.8584C1651.15 12.8584 1664.85 42.5573 1664.85 59.8017Z" stroke="black" stroke-width="2.5" stroke-linecap="round" stroke-linejoin="round"/>
<path d="M1663.6 7.74883C1676.37 6.15212 1689.44 27.5482 1691 40.6412C1691.47 45.6884 1690.4 50.7601 1687.95 55.1619C1685.5 59.5637 1681.78 63.0803 1677.3 65.2304" stroke="black" stroke-width="2.5" stroke-linecap="round" stroke-linejoin="round"/>
<path d="M767.208 22.9925C767.125 31.7417 769.621 40.3124 774.369 47.5819C777.639 52.7063 779.371 58.7022 779.351 64.8265C778.596 72.3766 775.138 79.3712 769.645 84.4571C764.153 89.543 757.016 92.3584 749.616 92.3584C742.216 92.3584 735.079 89.543 729.586 84.4571C724.093 79.3712 720.635 72.3766 719.881 64.8265C719.971 58.6724 721.811 52.6791 725.174 47.5819C729.922 40.3124 732.418 31.7417 732.335 22.9925C732.335 18.2496 734.172 13.701 737.442 10.3473C740.712 6.99354 745.147 5.10944 749.772 5.10944C754.396 5.10944 758.831 6.99354 762.101 10.3473C765.371 13.701 767.208 18.2496 767.208 22.9925Z" stroke="black" stroke-width="2.5" stroke-miterlimit="10"/>
<path d="M749.771 78.8775C756.478 78.8775 761.914 73.3016 761.914 66.4232C761.914 59.5449 756.478 53.9688 749.771 53.9688C743.065 53.9688 737.628 59.5449 737.628 66.4232C737.628 73.3016 743.065 78.8775 749.771 78.8775Z" stroke="black" stroke-width="2.5" stroke-miterlimit="10"/>
<path d="M2610.49 52.6915C2610.31 61.2867 2606.97 69.4933 2601.14 75.6746C2595.31 81.8559 2587.43 85.5575 2579.06 86.0411C2570.69 86.5247 2562.45 83.7547 2555.99 78.2837C2549.52 72.8126 2545.3 65.0426 2544.17 56.5234C2543.44 49.8125 2544.64 43.0276 2547.63 37.0101C2550.62 30.9927 2555.26 26.0075 2560.99 22.6733C2563.09 21.4684 2564.83 19.7055 2566.04 17.5701C2567.24 15.4347 2567.86 13.0056 2567.84 10.5383V5.10944H2586.52V10.2188C2586.56 12.7153 2587.21 15.1619 2588.4 17.3366C2589.6 19.5113 2591.31 21.3455 2593.37 22.6733C2598.58 25.6463 2602.92 30.0002 2605.93 35.2805C2608.95 40.5608 2610.52 46.5738 2610.49 52.6915Z" stroke="black" stroke-width="2.5" stroke-linecap="round" stroke-linejoin="round"/>
<path d="M2577.18 39.2791V66.4231" stroke="black" stroke-width="2.5" stroke-linecap="round" stroke-linejoin="round"/>
<path d="M2560.68 39.2791C2557.26 47.9887 2557.26 57.7134 2560.68 66.4231" stroke="black" stroke-width="2.5" stroke-linecap="round" stroke-linejoin="round"/>
<path d="M2593.68 39.2791C2597.09 47.9887 2597.09 57.7134 2593.68 66.4231" stroke="black" stroke-width="2.5" stroke-linecap="round" stroke-linejoin="round"/>
<path d="M2577.18 94.206V86.861" stroke="black" stroke-width="2.5" stroke-linecap="round" stroke-linejoin="round"/>
<path d="M2577.18 86.861L2584.03 91.9706" stroke="black" stroke-width="2.5" stroke-linecap="round" stroke-linejoin="round"/>
<path d="M2577.18 86.861L2570.64 91.9706" stroke="black" stroke-width="2.5" stroke-linecap="round" stroke-linejoin="round"/>
<path d="M1815.6 90.3738C1828.15 90.3738 1838.33 79.9367 1838.33 67.0619C1838.33 54.187 1828.15 43.7499 1815.6 43.7499C1803.05 43.7499 1792.87 54.187 1792.87 67.0619C1792.87 79.9367 1803.05 90.3738 1815.6 90.3738Z" stroke="black" stroke-width="2.5" stroke-linecap="round" stroke-linejoin="round"/>
<path d="M1845.8 45.3466C1848.39 44.3262 1851.13 43.7856 1853.9 43.7499C1859.92 43.7499 1865.71 46.206 1869.97 50.5779C1874.23 54.9497 1876.63 60.8792 1876.63 67.0619C1876.63 73.2446 1874.23 79.174 1869.97 83.5459C1865.71 87.9177 1859.92 90.3738 1853.9 90.3738C1851.26 90.2846 1848.64 89.8555 1846.11 89.0966" stroke="black" stroke-width="2.5" stroke-linecap="round" stroke-linejoin="round"/>
<path d="M1812.17 30.6569C1812.26 24.5297 1814.69 18.6819 1818.94 14.3789C1823.19 10.0759 1828.93 7.66373 1834.9 7.66431C1840.85 7.66431 1846.55 10.0867 1850.76 14.3987C1854.96 18.7106 1857.32 24.5589 1857.32 30.6569" stroke="black" stroke-width="2.5" stroke-linecap="round" stroke-linejoin="round"/>
<path d="M1812.17 68.0199C1815.44 68.0199 1818.09 65.3035 1818.09 61.9525C1818.09 58.6015 1815.44 55.8849 1812.17 55.8849C1808.91 55.8849 1806.26 58.6015 1806.26 61.9525C1806.26 65.3035 1808.91 68.0199 1812.17 68.0199Z" stroke="black" stroke-width="2.5" stroke-linecap="round" stroke-linejoin="round"/>
<path d="M1858.57 74.0874C1861.83 74.0874 1864.48 71.3708 1864.48 68.0198C1864.48 64.6688 1861.83 61.9525 1858.57 61.9525C1855.3 61.9525 1852.65 64.6688 1852.65 68.0198C1852.65 71.3708 1855.3 74.0874 1858.57 74.0874Z" stroke="black" stroke-width="2.5" stroke-linecap="round" stroke-linejoin="round"/>
<path d="M1834.9 30.0183C1838.17 30.0183 1840.82 27.3017 1840.82 23.9507C1840.82 20.5997 1838.17 17.8832 1834.9 17.8832C1831.64 17.8832 1828.99 20.5997 1828.99 23.9507C1828.99 27.3017 1831.64 30.0183 1834.9 30.0183Z" stroke="black" stroke-width="2.5" stroke-linecap="round" stroke-linejoin="round"/>
<path d="M962.405 42.7919C962.412 52.493 959.583 61.9734 954.286 70.0102C948.988 78.047 941.464 84.2714 932.684 87.8802C923.905 91.4891 914.272 92.3168 905.029 90.2568C895.786 88.1967 887.357 83.3434 880.829 76.3228L889.859 67.0618L939.054 16.925L947.772 7.66425C952.445 12.1648 956.158 17.6097 958.676 23.6557C961.195 29.7017 962.465 36.2174 962.405 42.7919Z" stroke="black" stroke-width="2.5" stroke-linecap="round" stroke-linejoin="round"/>
<path d="M949.951 42.7919C949.869 52.2222 946.159 61.2376 939.628 67.8761C933.097 74.5147 924.274 78.2391 915.079 78.2388C910.348 78.2817 905.66 77.3095 901.317 75.3847C896.974 73.4599 893.071 70.625 889.859 67.0618L939.054 16.925C942.483 20.2551 945.217 24.2649 947.091 28.7113C948.964 33.1577 949.937 37.9482 949.951 42.7919Z" stroke="black" stroke-width="2.5" stroke-linecap="round" stroke-linejoin="round"/>
<path d="M913.834 61.3138L910.72 64.5072" stroke="black" stroke-width="2.5" stroke-linecap="round" stroke-linejoin="round"/>
<path d="M936.251 38.3211L933.138 41.5145" stroke="black" stroke-width="2.5" stroke-linecap="round" stroke-linejoin="round"/>
<path d="M930.647 58.4396L927.533 55.2462" stroke="black" stroke-width="2.5" stroke-linecap="round" stroke-linejoin="round"/>
<path d="M2749.32 65.3028C2749.37 66.8112 2749.58 68.3096 2749.94 69.7736C2751.24 74.2399 2750.8 79.0527 2748.69 83.186C2747 86.3326 2744.52 88.9639 2741.51 90.8142C2738.5 92.6645 2735.07 93.6683 2731.57 93.7242C2728.1 93.6782 2724.71 92.6754 2721.75 90.821C2718.79 88.9667 2716.38 86.3293 2714.76 83.186C2712.69 79.0487 2712.14 74.2917 2713.2 69.7736L2714.13 65.3028C2717.87 44.5456 2717.87 54.4452 2714.13 33.688L2713.2 29.5366C2712.46 26.6545 2712.38 23.6373 2712.95 20.717C2713.53 17.7968 2714.76 15.0514 2716.53 12.692C2718.3 10.3326 2720.58 8.4221 2723.19 7.10757C2725.8 5.79303 2728.66 5.10944 2731.57 5.10944C2734.47 5.10944 2737.34 5.79303 2739.95 7.10757C2742.55 8.4221 2744.83 10.3326 2746.61 12.692C2748.38 15.0514 2749.6 17.7968 2750.18 20.717C2750.76 23.6373 2750.68 26.6545 2749.94 29.5366C2749.58 30.8922 2749.37 32.2847 2749.32 33.688C2745.58 53.8065 2745.58 45.5036 2749.32 65.3028Z" stroke="black" stroke-width="2.5" stroke-linecap="round" stroke-linejoin="round"/>
<path d="M2766.44 68.1769C2770.9 65.8512 2774.82 62.5865 2777.96 58.5967C2787.92 47.4197 2790.1 33.3687 2783.57 27.3012C2777.03 21.2337 2768.31 24.7464 2759.59 32.0913" stroke="black" stroke-width="2.5" stroke-linecap="round" stroke-linejoin="round"/>
<path d="M2784.81 29.8558L2761.46 50.613" stroke="black" stroke-width="2.5" stroke-linecap="round" stroke-linejoin="round"/>
<path d="M2440.82 38.1826C2440.82 42.9255 2438.93 47.4742 2435.58 50.8279C2432.23 54.1817 2427.68 56.0658 2422.93 56.0658C2418.58 56.0926 2414.37 54.4991 2411.12 51.595C2409.1 55.3757 2406.06 58.5168 2402.35 60.6637C2398.64 62.8106 2394.41 63.8779 2390.12 63.7451C2385.84 63.6122 2381.68 62.2846 2378.11 59.912C2374.54 57.5393 2371.7 54.2162 2369.92 50.3176C2368.17 51.6066 2366.03 52.2801 2363.86 52.2337C2362.35 52.2337 2360.85 51.9363 2359.46 51.3586C2358.06 50.7808 2356.79 49.934 2355.73 48.8665C2354.66 47.7989 2353.81 46.5316 2353.23 45.1368C2352.66 43.742 2352.36 42.2471 2352.36 40.7374C2352.33 38.4763 2352.98 36.2586 2354.24 34.3771C2355.49 32.4955 2357.28 31.0387 2359.38 30.1991C2358.84 28.4438 2358.62 26.6037 2358.75 24.7703C2358.77 20.7397 2360.03 16.8138 2362.35 13.5171C2364.67 10.2204 2367.94 7.71006 2371.72 6.32148C2375.51 4.93289 2379.63 4.73224 2383.53 5.74635C2387.43 6.76045 2390.93 8.941 2393.55 11.9966C2397.27 9.29765 2401.74 7.84428 2406.33 7.84512C2410.35 7.84289 2414.27 9.06371 2417.58 11.3454C2420.89 13.627 2423.42 16.8614 2424.85 20.6188C2429.23 21.0183 2433.29 23.0436 2436.25 26.2952C2439.21 29.5468 2440.84 33.7883 2440.82 38.1826Z" stroke="black" stroke-width="2.5" stroke-linecap="round" stroke-linejoin="round"/>
<path d="M2422.93 56.0657C2422.93 56.0657 2407.29 58.9398 2407.29 94.3867H2391C2391 94.3867 2391.96 69.7974 2375.99 57.9817" stroke="black" stroke-width="2.5" stroke-linecap="round" stroke-linejoin="round"/>
<path d="M2171.29 85.3091C2169.39 83.0903 2168.36 80.2195 2168.42 77.2634C2168.48 74.3074 2169.61 71.4809 2171.6 69.342L2213.01 20.1633C2214.41 18.3065 2216.16 16.7606 2218.15 15.6198C2220.15 14.479 2222.35 13.7674 2224.62 13.5283C2226.89 13.2892 2229.19 13.5277 2231.37 14.2292C2233.55 14.9308 2235.57 16.0806 2237.3 17.6086C2238.79 19.3851 2239.91 21.4545 2240.59 23.6903C2241.28 25.926 2241.51 28.2814 2241.28 30.6124C2241.04 32.9435 2240.35 35.2013 2239.24 37.2481C2238.13 39.295 2236.62 41.0878 2234.81 42.5172L2186.86 84.9898C2184.77 87.0311 2182.02 88.1963 2179.14 88.2554C2176.25 88.3146 2173.46 87.2632 2171.29 85.3091Z" stroke="black" stroke-width="2.5" stroke-linecap="round" stroke-linejoin="round"/>
<path d="M2176.27 63.5939L2181.88 69.6614" stroke="black" stroke-width="2.5" stroke-linecap="round" stroke-linejoin="round"/>
<path d="M2210.21 29.1049L2215.82 34.8531" stroke="black" stroke-width="2.5" stroke-linecap="round" stroke-linejoin="round"/>
<path d="M2205.23 57.8457L2210.83 63.5939" stroke="black" stroke-width="2.5" stroke-linecap="round" stroke-linejoin="round"/>
<path d="M2237.3 17.6087C2238.09 14.5744 2239.9 11.9214 2242.4 10.1123C2244.9 8.30316 2247.95 7.45269 2251 7.70908" stroke="black" stroke-width="2.5" stroke-linecap="round" stroke-linejoin="round"/>
<path d="M2063.89 35.7664C2063.94 40.9061 2062.42 45.9317 2059.53 50.1368C2056.88 48.7257 2054.47 46.8934 2052.37 44.708C2048.14 40.7442 2045.57 35.2482 2045.21 29.3796C2039.49 28.6794 2034.14 26.1035 2029.96 22.0348C2027.84 19.8199 2026.16 17.2207 2024.97 14.3705C2029.17 11.6681 2034.03 10.2297 2038.98 10.2191C2042.53 10.1543 2046.04 10.9188 2049.26 12.4545C2054.76 15.0624 2059.17 19.5899 2061.71 25.2282C2063.1 28.5639 2063.84 32.1424 2063.89 35.7664Z" stroke="black" stroke-width="2.5" stroke-linecap="round" stroke-linejoin="round"/>
<path d="M2055.18 16.2866C2055.18 16.2866 2062.65 17.2446 2065.76 7.66431" stroke="black" stroke-width="2.5" stroke-linecap="round" stroke-linejoin="round"/>
<path d="M2021.24 31.2954C2013.12 41.394 2002.46 49.0155 1990.41 53.3301C1972.98 59.3976 1976.4 89.4158 1999.13 89.7352C2021.86 90.0545 2030.27 81.7515 2044.28 57.4815" stroke="black" stroke-width="2.5" stroke-linecap="round" stroke-linejoin="round"/>
<path d="M1146.35 42.7919C1146.35 55.6655 1141.36 68.0118 1132.48 77.1148C1123.61 86.2178 1111.57 91.3318 1099.02 91.3318C1086.16 91.2796 1073.84 85.9968 1064.77 76.6422L1073.8 67.3812L1122.99 16.9251L1131.71 7.66425C1136.33 12.2112 1140 17.6651 1142.52 23.7004C1145.03 29.7358 1146.33 36.2288 1146.35 42.7919Z" stroke="black" stroke-width="2.5" stroke-linecap="round" stroke-linejoin="round"/>
<path d="M1133.89 42.7919C1133.87 49.9265 1131.77 56.8914 1127.86 62.7913C1123.95 68.6913 1118.4 73.2565 1111.94 75.9004C1105.48 78.5442 1098.4 79.1458 1091.6 77.6277C1084.8 76.1095 1078.6 72.5411 1073.8 67.3812L1122.99 16.9252C1126.42 20.2552 1129.16 24.265 1131.03 28.7114C1132.9 33.1578 1133.88 37.9482 1133.89 42.7919Z" stroke="black" stroke-width="2.5" stroke-linecap="round" stroke-linejoin="round"/>
<path d="M1098.09 42.4725L1123.31 68.3393" stroke="black" stroke-width="2.5" stroke-linecap="round" stroke-linejoin="round"/>
<path d="M1098.09 42.4725V78.5582" stroke="black" stroke-width="2.5" stroke-linecap="round" stroke-linejoin="round"/>
<path d="M1098.09 42.4725H1133.89" stroke="black" stroke-width="2.5" stroke-linecap="round" stroke-linejoin="round"/>
<path d="M1325.69 19.2017C1324.25 22.8586 1324.03 26.9003 1325.07 30.698C1327.56 43.7911 1322.58 59.7582 1310.74 71.8932C1298.91 84.0282 1283.66 89.1376 1271.2 86.5829C1267.09 85.7875 1262.86 85.7875 1258.75 86.5829C1256.86 86.8583 1254.95 86.4715 1253.31 85.4856C1251.67 84.4996 1250.4 82.9727 1249.72 81.1541C1249.16 79.6236 1249.05 77.9572 1249.41 76.3639C1249.92 71.6873 1249.82 66.9607 1249.09 62.313C1247.23 49.8586 1252.21 34.8495 1263.73 23.3532C1275.25 11.8569 1291.13 6.10873 1303.58 8.98281C1307.31 9.73451 1311.17 9.51488 1314.79 8.34409C1315.73 7.78858 1316.83 7.56425 1317.9 7.70537C1320.13 7.70537 1322.27 8.61384 1323.85 10.2308C1325.43 11.8478 1326.31 14.0409 1326.31 16.3276C1326.25 17.3136 1326.04 18.2839 1325.69 19.2017Z" stroke="black" stroke-width="2.5" stroke-linecap="round" stroke-linejoin="round"/>
<path d="M1278.67 74.7672C1280.74 74.7672 1282.41 73.0515 1282.41 70.935C1282.41 68.8186 1280.74 67.1031 1278.67 67.1031C1276.61 67.1031 1274.94 68.8186 1274.94 70.935C1274.94 73.0515 1276.61 74.7672 1278.67 74.7672Z" fill="black"/>
<path d="M1295.18 70.935C1297.24 70.935 1298.91 69.2195 1298.91 67.1031C1298.91 64.9867 1297.24 63.2709 1295.18 63.2709C1293.11 63.2709 1291.44 64.9867 1291.44 67.1031C1291.44 69.2195 1293.11 70.935 1295.18 70.935Z" fill="black"/>
<path d="M1304.83 58.4809C1306.89 58.4809 1308.56 56.7651 1308.56 54.6487C1308.56 52.5323 1306.89 50.8166 1304.83 50.8166C1302.76 50.8166 1301.09 52.5323 1301.09 54.6487C1301.09 56.7651 1302.76 58.4809 1304.83 58.4809Z" fill="black"/>
<path d="M1464.59 93.2478C1464.59 93.2478 1501.65 93.2478 1501.65 53.3301C1501.65 23.9506 1481.41 22.6732 1470.82 23.9506H1458.37C1447.78 22.6732 1427.54 23.9506 1427.54 53.3301C1427.54 93.2478 1464.59 93.2478 1464.59 93.2478Z" stroke="black" stroke-width="2.5" stroke-linecap="round" stroke-linejoin="round"/>
<path d="M1464.59 24.2699C1464.59 24.2699 1460.55 8.94146 1451.83 6.38672" stroke="black" stroke-width="2.5" stroke-linecap="round" stroke-linejoin="round"/>
<path d="M1483.9 2.55475C1483.9 6.70479 1482.29 10.6847 1479.43 13.6193C1476.57 16.5538 1472.69 18.2024 1468.64 18.2024C1468.64 14.0524 1470.25 10.0724 1473.11 7.13788C1475.97 4.20336 1479.85 2.55475 1483.9 2.55475Z" fill="black"/>
<path d="M2924.59 51.6873C2932.84 51.6873 2939.53 44.8245 2939.53 36.3589C2939.53 27.8932 2932.84 21.0304 2924.59 21.0304C2916.33 21.0304 2909.64 27.8932 2909.64 36.3589C2909.64 44.8245 2916.33 51.6873 2924.59 51.6873Z" stroke="black" stroke-width="2.5" stroke-miterlimit="10"/>
<path d="M2966 47.8551C2966.04 53.4446 2965 58.9866 2962.93 64.1588C2960.86 69.331 2957.82 74.03 2953.96 77.9824C2950.11 81.9349 2945.53 85.0618 2940.48 87.1812C2935.44 89.3005 2930.04 90.3701 2924.59 90.3276H2923.97C2918.99 90.2269 2914.19 88.4064 2910.35 85.1609C2906.51 81.9154 2903.84 77.4348 2902.79 72.4444C2901.17 65.6191 2898.21 59.2069 2894.07 53.6033C2889.71 47.2467 2887.98 39.3755 2889.27 31.714C2890.55 24.0524 2894.74 17.2251 2900.92 12.7275C2907.15 8.27947 2914.45 5.67226 2922.03 5.19078C2929.6 4.7093 2937.16 6.37203 2943.88 9.99729C2950.59 13.6225 2956.21 19.0709 2960.11 25.7474C2964.01 32.4238 2966.05 40.0715 2966 47.8551Z" stroke="black" stroke-width="2.5" stroke-miterlimit="10"/>
</svg>
