<svg width="1164" height="39" viewBox="0 0 1164 39" fill="none" xmlns="http://www.w3.org/2000/svg">
<path d="M22.4769 10.75L24.7925 5.37502L18.3331 7.74997L14.555 2L10.655 7.74997L4.3175 5.37502L6.63312 10.75" stroke="black" stroke-width="2.5" stroke-linecap="round" stroke-linejoin="round"/>
<path d="M14.433 18.75V20.5" stroke="black" stroke-width="2.5" stroke-linecap="round" stroke-linejoin="round"/>
<path d="M8.21747 17.25V19.125" stroke="black" stroke-width="2.5" stroke-linecap="round" stroke-linejoin="round"/>
<path d="M20.6487 17.25V19.125" stroke="black" stroke-width="2.5" stroke-linecap="round" stroke-linejoin="round"/>
<path d="M17.6018 23.75V25.625" stroke="black" stroke-width="2.5" stroke-linecap="round" stroke-linejoin="round"/>
<path d="M11.1425 23.75V25.625" stroke="black" stroke-width="2.5" stroke-linecap="round" stroke-linejoin="round"/>
<path d="M11.63 33.75C11.9843 34.1946 12.4306 34.5528 12.9364 34.7988C13.4423 35.0448 13.9951 35.1723 14.555 35.1723C15.1148 35.1723 15.6676 35.0448 16.1735 34.7988C16.6794 34.5528 17.1256 34.1946 17.48 33.75L24.5487 25.5C26.1909 23.5559 27.099 21.0723 27.1081 18.5C27.1242 17.4987 26.9479 16.5038 26.5891 15.5724C26.2303 14.6409 25.6962 13.7911 25.0171 13.0714C24.338 12.3517 23.5274 11.7763 22.6315 11.378C21.7356 10.9797 20.7719 10.7663 19.7956 10.75H9.31435C8.33802 10.7663 7.37435 10.9797 6.47844 11.378C5.58252 11.7763 4.77191 12.3517 4.09286 13.0714C3.41381 13.7911 2.87963 14.6409 2.52085 15.5724C2.16207 16.5038 1.98572 17.4987 2.00185 18.5C1.95309 21.0828 2.8687 23.587 4.56123 25.5L11.63 33.75Z" stroke="black" stroke-width="2.5" stroke-linecap="round" stroke-linejoin="round"/>
<path d="M71.3875 17.625C73.8107 17.625 75.775 15.6103 75.775 13.125C75.775 10.6397 73.8107 8.625 71.3875 8.625C68.9644 8.625 67 10.6397 67 13.125C67 15.6103 68.9644 17.625 71.3875 17.625Z" stroke="black" stroke-width="2.5" stroke-linecap="round" stroke-linejoin="round"/>
<path d="M80.2844 17.625C82.7075 17.625 84.6719 15.6103 84.6719 13.125C84.6719 10.6397 82.7075 8.625 80.2844 8.625C77.8612 8.625 75.8969 10.6397 75.8969 13.125C75.8969 15.6103 77.8612 17.625 80.2844 17.625Z" stroke="black" stroke-width="2.5" stroke-linecap="round" stroke-linejoin="round"/>
<path d="M89.1812 17.625C91.6044 17.625 93.5687 15.6103 93.5687 13.125C93.5687 10.6397 91.6044 8.625 89.1812 8.625C86.7581 8.625 84.7938 10.6397 84.7938 13.125C84.7938 15.6103 86.7581 17.625 89.1812 17.625Z" stroke="black" stroke-width="2.5" stroke-linecap="round" stroke-linejoin="round"/>
<path d="M75.8968 26.75C78.32 26.75 80.2844 24.7353 80.2844 22.25C80.2844 19.7647 78.32 17.75 75.8968 17.75C73.4737 17.75 71.5093 19.7647 71.5093 22.25C71.5093 24.7353 73.4737 26.75 75.8968 26.75Z" stroke="black" stroke-width="2.5" stroke-linecap="round" stroke-linejoin="round"/>
<path d="M84.6719 26.75C87.095 26.75 89.0594 24.7353 89.0594 22.25C89.0594 19.7647 87.095 17.75 84.6719 17.75C82.2487 17.75 80.2844 19.7647 80.2844 22.25C80.2844 24.7353 82.2487 26.75 84.6719 26.75Z" stroke="black" stroke-width="2.5" stroke-linecap="round" stroke-linejoin="round"/>
<path d="M80.2844 35.125C82.7075 35.125 84.6719 33.1103 84.6719 30.625C84.6719 28.1397 82.7075 26.125 80.2844 26.125C77.8612 26.125 75.8969 28.1397 75.8969 30.625C75.8969 33.1103 77.8612 35.125 80.2844 35.125Z" stroke="black" stroke-width="2.5" stroke-linecap="round" stroke-linejoin="round"/>
<path d="M80.2844 8.625C80.1307 7.55979 80.2654 6.47172 80.6737 5.47971C81.0821 4.48769 81.7485 3.6299 82.6 3" stroke="black" stroke-width="2.5" stroke-linecap="round" stroke-linejoin="round"/>
<path d="M167.463 29.5988C165.353 31.5583 162.858 33.03 160.145 33.9142C157.433 34.7984 154.567 35.0745 151.741 34.7238C142.6 33.7238 133.094 26.3488 134.069 16.9738C134.435 12.8488 134.557 14.3488 135.166 4.84876C135.166 4.34876 136.507 4.09877 136.507 4.09877C136.507 4.09877 138.7 3.59876 138.7 4.84876C138.699 7.10474 139.07 9.34468 139.797 11.4738C141.145 15.5505 143.704 19.0924 147.113 21.603C150.523 24.1136 154.613 25.4671 158.81 25.4738C160.833 25.5078 162.849 25.2125 164.782 24.5988C165.417 24.3389 166.122 24.3261 166.766 24.5628C167.41 24.7994 167.947 25.2692 168.276 25.8836C168.606 26.4981 168.705 27.2149 168.555 27.8991C168.405 28.5833 168.017 29.1878 167.463 29.5988Z" stroke="black" stroke-width="2.5" stroke-linecap="round" stroke-linejoin="round"/>
<path d="M139.554 10.2238C141.868 12.8317 144.804 14.7786 148.072 15.8742C151.341 16.9697 154.831 17.1763 158.2 16.4738C160.209 16.0858 162.143 15.3682 163.929 14.3488C164.489 14.059 165.128 13.9706 165.744 14.0979C166.359 14.2251 166.915 14.5606 167.323 15.0505C167.73 15.5404 167.965 16.1564 167.991 16.7998C168.016 17.4431 167.83 18.0766 167.463 18.5988L165.635 20.7237" stroke="black" stroke-width="2.5" stroke-linecap="round" stroke-linejoin="round"/>
<path d="M235.375 37.5648C239.379 37.5648 242.625 34.3189 242.625 30.3148C242.625 26.3108 239.379 23.0648 235.375 23.0648C231.371 23.0648 228.125 26.3108 228.125 30.3148C228.125 34.3189 231.371 37.5648 235.375 37.5648Z" stroke="black" stroke-width="2.5" stroke-linecap="round" stroke-linejoin="round"/>
<path d="M216.25 37.5648C220.254 37.5648 223.5 34.3189 223.5 30.3148C223.5 26.3108 220.254 23.0648 216.25 23.0648C212.246 23.0648 209 26.3108 209 30.3148C209 34.3189 212.246 37.5648 216.25 37.5648Z" stroke="black" stroke-width="2.5" stroke-linecap="round" stroke-linejoin="round"/>
<path d="M235.375 23.0648C235.375 23.0648 232.5 10.0648 237.375 6.06482C217.875 9.06482 216.25 23.0648 216.25 23.0648" stroke="black" stroke-width="2.5" stroke-linecap="round" stroke-linejoin="round"/>
<path d="M228.191 8.04333L227.661 8.57366C225.528 10.7069 222.635 11.9053 219.618 11.9053C216.601 11.9053 213.708 10.7069 211.574 8.57366L212.105 8.04333C214.238 5.9101 217.131 4.71167 220.148 4.71167C223.165 4.71167 226.058 5.91011 228.191 8.04333Z" stroke="black" stroke-width="2.5" stroke-linejoin="round"/>
<path d="M640.944 30.5331C644.04 30.5331 646.55 27.9587 646.55 24.7831C646.55 21.6075 644.04 19.0331 640.944 19.0331C637.847 19.0331 635.338 21.6075 635.338 24.7831C635.338 27.9587 637.847 30.5331 640.944 30.5331Z" stroke="black" stroke-width="2.5" stroke-linecap="round" stroke-linejoin="round"/>
<path d="M652.887 23.4082C652.887 26.6571 651.629 29.7729 649.389 32.0702C647.149 34.3675 644.111 35.6581 640.944 35.6581C637.776 35.6581 634.738 34.3675 632.498 32.0702C630.258 29.7729 629 26.6571 629 23.4082C629 16.6582 634.362 5.03314 640.944 5.03314C647.525 5.03314 652.887 16.6582 652.887 23.4082Z" stroke="black" stroke-width="2.5" stroke-linecap="round" stroke-linejoin="round"/>
<path d="M652.4 3.03308C657.397 2.40808 662.516 10.7831 663.125 15.9081C663.308 17.8838 662.89 19.869 661.93 21.592C660.97 23.315 659.515 24.6915 657.762 25.5331" stroke="black" stroke-width="2.5" stroke-linecap="round" stroke-linejoin="round"/>
<path d="M301.525 8.99997C301.493 12.4247 302.47 15.7795 304.328 18.625C305.608 20.6308 306.286 22.9778 306.278 25.375C305.983 28.3304 304.629 31.0683 302.479 33.059C300.329 35.0498 297.536 36.1518 294.639 36.1518C291.742 36.1518 288.949 35.0498 286.799 33.059C284.649 31.0683 283.295 28.3304 283 25.375C283.035 22.9661 283.755 20.6202 285.072 18.625C286.93 15.7795 287.907 12.4247 287.875 8.99997C287.875 7.14345 288.594 5.363 289.874 4.05025C291.154 2.73749 292.89 2 294.7 2C296.51 2 298.246 2.73749 299.526 4.05025C300.806 5.363 301.525 7.14345 301.525 8.99997Z" stroke="black" stroke-width="2.5" stroke-miterlimit="10"/>
<path d="M294.7 30.875C297.325 30.875 299.453 28.6924 299.453 26C299.453 23.3076 297.325 21.125 294.7 21.125C292.075 21.125 289.947 23.3076 289.947 26C289.947 28.6924 292.075 30.875 294.7 30.875Z" stroke="black" stroke-width="2.5" stroke-miterlimit="10"/>
<path d="M1023.04 20.625C1022.97 23.9894 1021.66 27.2018 1019.38 29.6213C1017.1 32.0409 1014.01 33.4898 1010.74 33.6791C1007.46 33.8684 1004.24 32.7841 1001.71 30.6426C999.175 28.501 997.524 25.4596 997.083 22.125C996.794 19.4981 997.264 16.8423 998.434 14.4869C999.604 12.1315 1001.42 10.1801 1003.66 8.875C1004.49 8.40337 1005.17 7.71334 1005.64 6.87747C1006.11 6.0416 1006.36 5.0908 1006.35 4.12502V2H1013.66V3.99997C1013.67 4.97717 1013.93 5.93483 1014.4 6.78607C1014.86 7.63732 1015.53 8.35528 1016.34 8.875C1018.38 10.0387 1020.08 11.743 1021.26 13.8098C1022.44 15.8767 1023.05 18.2304 1023.04 20.625Z" stroke="black" stroke-width="2.5" stroke-linecap="round" stroke-linejoin="round"/>
<path d="M1010 15.375V26" stroke="black" stroke-width="2.5" stroke-linecap="round" stroke-linejoin="round"/>
<path d="M1003.54 15.375C1002.21 18.7842 1002.21 22.5908 1003.54 26" stroke="black" stroke-width="2.5" stroke-linecap="round" stroke-linejoin="round"/>
<path d="M1016.46 15.375C1017.8 18.7842 1017.8 22.5908 1016.46 26" stroke="black" stroke-width="2.5" stroke-linecap="round" stroke-linejoin="round"/>
<path d="M1010 36.8751V34" stroke="black" stroke-width="2.5" stroke-linecap="round" stroke-linejoin="round"/>
<path d="M1010 34L1012.68 36" stroke="black" stroke-width="2.5" stroke-linecap="round" stroke-linejoin="round"/>
<path d="M1010 34L1007.44 36" stroke="black" stroke-width="2.5" stroke-linecap="round" stroke-linejoin="round"/>
<path d="M711.897 35.375C716.81 35.375 720.794 31.2896 720.794 26.25C720.794 21.2104 716.81 17.125 711.897 17.125C706.983 17.125 703 21.2104 703 26.25C703 31.2896 706.983 35.375 711.897 35.375Z" stroke="black" stroke-width="2.5" stroke-linecap="round" stroke-linejoin="round"/>
<path d="M723.719 17.75C724.731 17.3506 725.803 17.139 726.887 17.125C729.247 17.125 731.51 18.0864 733.178 19.7977C734.847 21.5089 735.784 23.8299 735.784 26.25C735.784 28.6701 734.847 30.991 733.178 32.7023C731.51 34.4136 729.247 35.375 726.887 35.375C725.855 35.34 724.832 35.1721 723.841 34.875" stroke="black" stroke-width="2.5" stroke-linecap="round" stroke-linejoin="round"/>
<path d="M710.556 12C710.588 9.6016 711.54 7.31262 713.205 5.62829C714.87 3.94396 717.114 2.99977 719.453 3C721.78 3 724.012 3.9482 725.658 5.63603C727.304 7.32386 728.228 9.61303 728.228 12" stroke="black" stroke-width="2.5" stroke-linecap="round" stroke-linejoin="round"/>
<path d="M710.556 26.625C711.835 26.625 712.872 25.5617 712.872 24.25C712.872 22.9384 711.835 21.875 710.556 21.875C709.277 21.875 708.241 22.9384 708.241 24.25C708.241 25.5617 709.277 26.625 710.556 26.625Z" stroke="black" stroke-width="2.5" stroke-linecap="round" stroke-linejoin="round"/>
<path d="M728.716 29C729.994 29 731.031 27.9366 731.031 26.625C731.031 25.3133 729.994 24.25 728.716 24.25C727.437 24.25 726.4 25.3133 726.4 26.625C726.4 27.9366 727.437 29 728.716 29Z" stroke="black" stroke-width="2.5" stroke-linecap="round" stroke-linejoin="round"/>
<path d="M719.453 11.75C720.732 11.75 721.769 10.6867 721.769 9.37499C721.769 8.06332 720.732 7 719.453 7C718.174 7 717.137 8.06332 717.137 9.37499C717.137 10.6867 718.174 11.75 719.453 11.75Z" stroke="black" stroke-width="2.5" stroke-linecap="round" stroke-linejoin="round"/>
<path d="M377.931 16.75C377.934 20.5473 376.827 24.2582 374.753 27.4041C372.679 30.5499 369.734 32.9863 366.298 34.3989C362.861 35.8115 359.09 36.1355 355.472 35.3292C351.855 34.5228 348.555 32.6231 346 29.875L349.534 26.25L368.791 6.62495L372.203 3C374.032 4.76164 375.486 6.89297 376.472 9.25954C377.457 11.6261 377.955 14.1766 377.931 16.75Z" stroke="black" stroke-width="2.5" stroke-linecap="round" stroke-linejoin="round"/>
<path d="M373.056 16.75C373.024 20.4413 371.572 23.9702 369.015 26.5687C366.459 29.1672 363.005 30.6251 359.406 30.625C357.554 30.6418 355.719 30.2612 354.019 29.5078C352.319 28.7543 350.792 27.6447 349.534 26.25L368.791 6.62494C370.133 7.92842 371.203 9.49798 371.937 11.2384C372.67 12.9789 373.051 14.854 373.056 16.75Z" stroke="black" stroke-width="2.5" stroke-linecap="round" stroke-linejoin="round"/>
<path d="M358.919 24L357.7 25.25" stroke="black" stroke-width="2.5" stroke-linecap="round" stroke-linejoin="round"/>
<path d="M367.694 15L366.475 16.25" stroke="black" stroke-width="2.5" stroke-linecap="round" stroke-linejoin="round"/>
<path d="M365.5 22.875L364.281 21.625" stroke="black" stroke-width="2.5" stroke-linecap="round" stroke-linejoin="round"/>
<path d="M1077.38 25.5615C1077.4 26.1519 1077.48 26.7384 1077.63 27.3115C1078.14 29.0597 1077.96 30.9436 1077.14 32.5615C1076.47 33.7931 1075.5 34.8231 1074.33 35.5474C1073.15 36.2717 1071.81 36.6646 1070.43 36.6865C1069.08 36.6685 1067.75 36.2759 1066.59 35.5501C1065.43 34.8242 1064.49 33.7919 1063.85 32.5615C1063.05 30.942 1062.83 29.08 1063.24 27.3115L1063.61 25.5615C1065.07 17.4365 1065.07 21.3115 1063.61 13.1865L1063.24 11.5615C1062.95 10.4334 1062.92 9.25235 1063.15 8.10928C1063.37 6.9662 1063.85 5.89157 1064.55 4.96803C1065.24 4.04448 1066.13 3.29668 1067.15 2.78213C1068.18 2.26758 1069.3 2 1070.43 2C1071.57 2 1072.69 2.26758 1073.71 2.78213C1074.73 3.29668 1075.63 4.04448 1076.32 4.96803C1077.02 5.89157 1077.49 6.9662 1077.72 8.10928C1077.95 9.25235 1077.91 10.4334 1077.63 11.5615C1077.48 12.0922 1077.4 12.6372 1077.38 13.1865C1075.92 21.0615 1075.92 17.8115 1077.38 25.5615Z" stroke="black" stroke-width="2.5" stroke-linecap="round" stroke-linejoin="round"/>
<path d="M1084.08 26.6865C1085.83 25.7761 1087.36 24.4982 1088.59 22.9365C1092.49 18.5615 1093.35 13.0615 1090.79 10.6865C1088.23 8.3115 1084.82 9.6865 1081.4 12.5615" stroke="black" stroke-width="2.5" stroke-linecap="round" stroke-linejoin="round"/>
<path d="M1091.28 11.6865L1082.13 19.8115" stroke="black" stroke-width="2.5" stroke-linecap="round" stroke-linejoin="round"/>
<path d="M956.625 14.9458C956.625 16.8023 955.888 18.5828 954.575 19.8956C953.262 21.2083 951.482 21.9458 949.625 21.9458C947.92 21.9563 946.272 21.3326 945 20.1958C944.21 21.6757 943.022 22.9052 941.57 23.7456C940.118 24.586 938.46 25.0037 936.783 24.9517C935.106 24.8997 933.477 24.3801 932.08 23.4513C930.682 22.5226 929.573 21.2218 928.875 19.6958C928.188 20.2004 927.353 20.464 926.5 20.4458C925.909 20.4458 925.324 20.3294 924.778 20.1033C924.232 19.8771 923.736 19.5457 923.318 19.1278C922.901 18.7099 922.569 18.2139 922.343 17.6679C922.117 17.1219 922 16.5368 922 15.9458C921.988 15.0608 922.244 14.1927 922.735 13.4562C923.226 12.7197 923.929 12.1495 924.75 11.8208C924.538 11.1338 924.453 10.4135 924.5 9.69583C924.511 8.11816 925.004 6.58143 925.911 5.29101C926.819 4.00059 928.099 3.01796 929.58 2.47443C931.061 1.9309 932.673 1.85236 934.2 2.24931C935.727 2.64626 937.097 3.49979 938.125 4.69583C939.579 3.63939 941.329 3.0705 943.125 3.07083C944.699 3.06995 946.235 3.54782 947.53 4.44093C948.825 5.33403 949.817 6.60009 950.375 8.07083C952.088 8.22719 953.681 9.01998 954.838 10.2927C955.995 11.5655 956.633 13.2258 956.625 14.9458Z" stroke="black" stroke-width="2.5" stroke-linecap="round" stroke-linejoin="round"/>
<path d="M949.625 21.9458C949.625 21.9458 943.5 23.0708 943.5 36.9458H937.125C937.125 36.9458 937.5 27.3208 931.25 22.6958" stroke="black" stroke-width="2.5" stroke-linecap="round" stroke-linejoin="round"/>
<path d="M851.125 33.3925C850.38 32.524 849.978 31.4003 850.001 30.2432C850.023 29.0861 850.468 27.9797 851.247 27.1425L867.457 7.8925C868.002 7.16571 868.686 6.56056 869.468 6.11403C870.249 5.6675 871.11 5.38894 872 5.29536C872.89 5.20177 873.789 5.29513 874.642 5.56973C875.495 5.84433 876.285 6.29441 876.963 6.8925C877.546 7.5879 877.985 8.39791 878.253 9.27306C878.52 10.1482 878.611 11.0702 878.52 11.9826C878.429 12.895 878.157 13.7788 877.722 14.58C877.286 15.3812 876.697 16.083 875.988 16.6425L857.219 33.2675C856.403 34.0665 855.324 34.5226 854.196 34.5458C853.068 34.5689 851.972 34.1574 851.125 33.3925Z" stroke="black" stroke-width="2.5" stroke-linecap="round" stroke-linejoin="round"/>
<path d="M853.075 24.8925L855.269 27.2675" stroke="black" stroke-width="2.5" stroke-linecap="round" stroke-linejoin="round"/>
<path d="M866.36 11.3925L868.554 13.6425" stroke="black" stroke-width="2.5" stroke-linecap="round" stroke-linejoin="round"/>
<path d="M864.41 22.6425L866.603 24.8925" stroke="black" stroke-width="2.5" stroke-linecap="round" stroke-linejoin="round"/>
<path d="M876.963 6.89252C877.273 5.70481 877.979 4.66636 878.959 3.95821C879.939 3.25007 881.131 2.91717 882.325 3.01753" stroke="black" stroke-width="2.5" stroke-linecap="round" stroke-linejoin="round"/>
<path d="M809.086 14C809.105 16.0118 808.508 17.979 807.38 19.625C806.342 19.0727 805.396 18.3555 804.577 17.5C802.92 15.9485 801.914 13.7972 801.774 11.5C799.533 11.2259 797.439 10.2177 795.802 8.62504C794.976 7.75807 794.315 6.74065 793.852 5.62501C795.496 4.56722 797.396 4.00418 799.336 4.00002C800.724 3.97466 802.1 4.27391 803.358 4.87504C805.51 5.89586 807.238 7.66805 808.233 9.87504C808.774 11.1807 809.064 12.5815 809.086 14Z" stroke="black" stroke-width="2.5" stroke-linecap="round" stroke-linejoin="round"/>
<path d="M805.674 6.37502C805.674 6.37502 808.599 6.75 809.818 3" stroke="black" stroke-width="2.5" stroke-linecap="round" stroke-linejoin="round"/>
<path d="M792.39 12.2499C789.213 16.2028 785.039 19.1861 780.324 20.875C773.499 23.25 774.84 35 783.736 35.125C792.633 35.25 795.924 32 801.408 22.5" stroke="black" stroke-width="2.5" stroke-linecap="round" stroke-linejoin="round"/>
<path d="M449.931 16.75C449.931 21.7891 447.98 26.6218 444.505 30.185C441.031 33.7482 436.319 35.75 431.406 35.75C426.371 35.7295 421.55 33.6617 418 30L421.534 26.375L440.791 6.62499L444.203 3C446.009 4.77983 447.447 6.91465 448.432 9.27705C449.416 11.6394 449.926 14.181 449.931 16.75Z" stroke="black" stroke-width="2.5" stroke-linecap="round" stroke-linejoin="round"/>
<path d="M445.056 16.75C445.048 19.5427 444.225 22.269 442.694 24.5784C441.163 26.8878 438.994 28.6748 436.464 29.7096C433.935 30.7445 431.162 30.98 428.502 30.3858C425.841 29.7915 423.415 28.3947 421.534 26.375L440.791 6.625C442.133 7.92848 443.203 9.49804 443.937 11.2385C444.67 12.9789 445.051 14.854 445.056 16.75Z" stroke="black" stroke-width="2.5" stroke-linecap="round" stroke-linejoin="round"/>
<path d="M431.041 16.625L440.912 26.75" stroke="black" stroke-width="2.5" stroke-linecap="round" stroke-linejoin="round"/>
<path d="M431.041 16.625V30.75" stroke="black" stroke-width="2.5" stroke-linecap="round" stroke-linejoin="round"/>
<path d="M431.041 16.625H445.056" stroke="black" stroke-width="2.5" stroke-linecap="round" stroke-linejoin="round"/>
<path d="M520.131 7.5161C519.568 8.94753 519.483 10.5296 519.887 12.0161C520.862 17.1411 518.912 23.3911 514.281 28.1411C509.65 32.8911 503.678 34.8911 498.803 33.8911C497.192 33.5798 495.539 33.5798 493.928 33.8911C493.191 33.9989 492.441 33.8475 491.799 33.4616C491.157 33.0756 490.662 32.478 490.394 31.7661C490.174 31.167 490.132 30.5148 490.272 29.8911C490.474 28.0605 490.433 26.2104 490.15 24.3911C489.419 19.5161 491.369 13.6411 495.878 9.14113C500.387 4.64113 506.603 2.39113 511.478 3.51613C512.938 3.81036 514.446 3.72439 515.866 3.26611C516.234 3.04867 516.662 2.96086 517.084 3.0161C517.957 3.0161 518.794 3.3717 519.411 4.00464C520.028 4.63757 520.375 5.49601 520.375 6.39111C520.353 6.77704 520.27 7.15683 520.131 7.5161Z" stroke="black" stroke-width="2.5" stroke-linecap="round" stroke-linejoin="round"/>
<path d="M501.728 29.2661C502.536 29.2661 503.191 28.5945 503.191 27.7661C503.191 26.9376 502.536 26.2661 501.728 26.2661C500.92 26.2661 500.266 26.9376 500.266 27.7661C500.266 28.5945 500.92 29.2661 501.728 29.2661Z" fill="black"/>
<path d="M508.187 27.7661C508.995 27.7661 509.65 27.0946 509.65 26.2661C509.65 25.4377 508.995 24.7661 508.187 24.7661C507.38 24.7661 506.725 25.4377 506.725 26.2661C506.725 27.0946 507.38 27.7661 508.187 27.7661Z" fill="black"/>
<path d="M511.966 22.8911C512.773 22.8911 513.428 22.2196 513.428 21.3911C513.428 20.5627 512.773 19.8911 511.966 19.8911C511.158 19.8911 510.503 20.5627 510.503 21.3911C510.503 22.2196 511.158 22.8911 511.966 22.8911Z" fill="black"/>
<path d="M574.503 36.5C574.503 36.5 589.006 36.5 589.006 20.875C589.006 9.37497 581.084 8.87498 576.941 9.37498H572.066C567.922 8.87498 560 9.37497 560 20.875C560 36.5 574.503 36.5 574.503 36.5Z" stroke="black" stroke-width="2.5" stroke-linecap="round" stroke-linejoin="round"/>
<path d="M574.503 9.49994C574.503 9.49994 572.919 3.49994 569.506 2.49994" stroke="black" stroke-width="2.5" stroke-linecap="round" stroke-linejoin="round"/>
<path d="M582.059 1C582.059 2.62445 581.43 4.18232 580.31 5.33098C579.19 6.47964 577.671 7.12495 576.088 7.12495C576.088 5.5005 576.717 3.94264 577.837 2.79398C578.957 1.64532 580.476 1 582.059 1Z" fill="black"/>
<path d="M1145.99 20.2319C1149.22 20.2319 1151.84 17.5457 1151.84 14.232C1151.84 10.9182 1149.22 8.23193 1145.99 8.23193C1142.76 8.23193 1140.14 10.9182 1140.14 14.232C1140.14 17.5457 1142.76 20.2319 1145.99 20.2319Z" stroke="black" stroke-width="2.5" stroke-miterlimit="10"/>
<path d="M1162.2 18.7319C1162.21 20.9198 1161.81 23.0891 1161 25.1137C1160.19 27.1382 1158.99 28.9776 1157.49 30.5247C1155.98 32.0718 1154.18 33.2957 1152.21 34.1253C1150.24 34.9549 1148.12 35.3736 1145.99 35.3569H1145.74C1143.8 35.3175 1141.92 34.6049 1140.41 33.3345C1138.91 32.0641 1137.87 30.3103 1137.46 28.3569C1136.82 25.6853 1135.66 23.1753 1134.04 20.9819C1132.34 18.4938 1131.66 15.4128 1132.16 12.4138C1132.66 9.41485 1134.31 6.74244 1136.73 4.98194C1139.16 3.24085 1142.02 2.22031 1144.99 2.03184C1147.95 1.84338 1150.91 2.49422 1153.54 3.91325C1156.17 5.33228 1158.36 7.46494 1159.89 10.0783C1161.42 12.6916 1162.22 15.6852 1162.2 18.7319Z" stroke="black" stroke-width="2.5" stroke-miterlimit="10"/>
</svg>
